<svg width="162" height="150" viewBox="0 0 162 150" fill="none" xmlns="http://www.w3.org/2000/svg">
<path d="M138.4 75.2C137.98 75.5152 137.502 75.7445 136.993 75.8749C136.484 76.0052 135.954 76.0341 135.434 75.9598C134.914 75.8855 134.414 75.7095 133.962 75.4419C133.51 75.1743 133.115 74.8202 132.8 74.4C130.389 71.1593 127.251 68.53 123.638 66.7236C120.026 64.9172 116.039 63.9843 112 64C111.213 63.9999 110.444 63.7679 109.789 63.3331C109.134 62.8982 108.621 62.2797 108.315 61.555C108.107 61.0629 108 60.5341 108 60C108 59.4659 108.107 58.9371 108.315 58.445C108.621 57.7203 109.134 57.1018 109.789 56.6669C110.444 56.2321 111.213 56.0001 112 56C114.244 55.9998 116.444 55.3702 118.348 54.1827C120.253 52.9952 121.786 51.2974 122.774 49.2822C123.762 47.267 124.165 45.0151 123.937 42.7823C123.709 40.5495 122.86 38.4254 121.486 36.6511C120.111 34.8769 118.267 33.5236 116.162 32.7451C114.057 31.9666 111.775 31.794 109.577 32.2469C107.379 32.6999 105.352 33.7602 103.726 35.3075C102.1 36.8547 100.941 38.8269 100.38 41C100.249 41.5089 100.018 41.9869 99.7024 42.4068C99.3863 42.8267 98.9907 43.1802 98.538 43.4471C98.0853 43.7141 97.5845 43.8893 97.0641 43.9627C96.5437 44.0361 96.0139 44.0063 95.5051 43.875C94.9962 43.7437 94.5182 43.5134 94.0983 43.1974C93.6784 42.8813 93.3249 42.4856 93.0579 42.0329C92.7909 41.5802 92.6157 41.0794 92.5423 40.559C92.4689 40.0386 92.4987 39.5089 92.6301 39C93.4088 35.9866 94.8802 33.1965 96.927 30.8518C98.9738 28.507 101.54 26.6724 104.42 25.4938C107.301 24.3151 110.417 23.8251 113.52 24.0627C116.624 24.3002 119.629 25.2588 122.296 26.8621C124.964 28.4654 127.221 30.6692 128.887 33.2981C130.553 35.927 131.583 38.9085 131.894 42.0054C132.205 45.1022 131.789 48.229 130.679 51.1367C129.569 54.0445 127.796 56.6531 125.5 58.755C130.939 61.11 135.667 64.8471 139.215 69.595C139.53 70.0163 139.759 70.4956 139.889 71.0056C140.018 71.5155 140.046 72.0459 139.97 72.5666C139.895 73.0872 139.717 73.5879 139.448 74.0397C139.178 74.4916 138.822 74.8859 138.4 75.2ZM111.46 106C111.749 106.455 111.944 106.964 112.031 107.497C112.119 108.029 112.098 108.574 111.97 109.098C111.841 109.622 111.608 110.114 111.285 110.546C110.961 110.977 110.553 111.339 110.086 111.609C109.619 111.879 109.102 112.052 108.567 112.117C108.031 112.182 107.488 112.138 106.97 111.988C106.452 111.837 105.969 111.584 105.552 111.242C105.134 110.901 104.79 110.478 104.54 110C102.02 105.733 98.4316 102.197 94.1282 99.741C89.8247 97.2846 84.9552 95.9927 80.0001 95.9927C75.0449 95.9927 70.1754 97.2846 65.8719 99.741C61.5685 102.197 57.9798 105.733 55.4601 110C55.21 110.478 54.8658 110.901 54.4482 111.242C54.0307 111.584 53.5483 111.837 53.0302 111.988C52.5121 112.138 51.9689 112.182 51.4334 112.117C50.8978 112.052 50.381 111.879 49.9139 111.609C49.4469 111.339 49.0393 110.977 48.7156 110.546C48.3919 110.114 48.1589 109.622 48.0306 109.098C47.9022 108.574 47.8812 108.029 47.9687 107.497C48.0563 106.964 48.2506 106.455 48.5401 106C52.418 99.3369 58.331 94.0934 65.4101 91.04C61.4267 87.9902 58.4992 83.7688 57.0391 78.9692C55.5789 74.1695 55.6595 69.033 57.2696 64.2815C58.8797 59.5301 61.9383 55.4027 66.0154 52.4794C70.0925 49.5561 74.9832 47.984 80.0001 47.984C85.0169 47.984 89.9076 49.5561 93.9847 52.4794C98.0618 55.4027 101.12 59.5301 102.73 64.2815C104.341 69.033 104.421 74.1695 102.961 78.9692C101.501 83.7688 98.5734 87.9902 94.59 91.04C101.669 94.0934 107.582 99.3369 111.46 106ZM80.0001 88C83.1646 88 86.258 87.0616 88.8892 85.3035C91.5204 83.5454 93.5711 81.0466 94.7821 78.1229C95.9931 75.1993 96.31 71.9823 95.6926 68.8786C95.0753 65.7749 93.5514 62.9239 91.3138 60.6863C89.0761 58.4487 86.2252 56.9248 83.1215 56.3074C80.0178 55.6901 76.8007 56.0069 73.8771 57.2179C70.9535 58.4289 68.4546 60.4797 66.6965 63.1109C64.9384 65.7421 64.0001 68.8355 64.0001 72C64.0001 76.2435 65.6858 80.3131 68.6863 83.3137C71.6869 86.3143 75.7566 88 80.0001 88ZM52.0001 60C52.0001 58.9391 51.5786 57.9217 50.8285 57.1716C50.0783 56.4214 49.0609 56 48.0001 56C45.7557 55.9998 43.5564 55.3702 41.6519 54.1827C39.7474 52.9952 38.2141 51.2974 37.2262 49.2822C36.2383 47.267 35.8353 45.0151 36.063 42.7823C36.2908 40.5495 37.1401 38.4254 38.5146 36.6511C39.8891 34.8769 41.7335 33.5236 43.8385 32.7451C45.9436 31.9666 48.2247 31.794 50.4229 32.2469C52.6211 32.6999 54.6482 33.7602 56.2739 35.3075C57.8997 36.8547 59.059 38.8269 59.6201 41C59.8853 42.0277 60.5479 42.908 61.4621 43.4471C62.3764 43.9863 63.4673 44.1402 64.4951 43.875C65.5228 43.6098 66.403 42.9472 66.9422 42.0329C67.4814 41.1187 67.6353 40.0277 67.3701 39C66.5913 35.9866 65.1199 33.1965 63.0731 30.8518C61.0263 28.507 58.4605 26.6724 55.5798 25.4938C52.6992 24.3151 49.5832 23.8251 46.4798 24.0627C43.3765 24.3002 40.3714 25.2588 37.7037 26.8621C35.036 28.4654 32.7793 30.6692 31.1132 33.2981C29.447 35.927 28.4175 38.9085 28.1064 42.0054C27.7953 45.1022 28.2113 48.229 29.3213 51.1367C30.4312 54.0445 32.2045 56.6531 34.5001 58.755C29.0665 61.1122 24.3436 64.8491 20.8001 69.595C20.1629 70.4437 19.8889 71.5107 20.0385 72.5614C20.188 73.6121 20.7489 74.5603 21.5976 75.1975C22.4462 75.8347 23.5133 76.1086 24.564 75.9591C25.6146 75.8095 26.5629 75.2487 27.2001 74.4C29.611 71.1593 32.7491 68.53 36.3618 66.7236C39.9746 64.9172 43.9609 63.9843 48.0001 64C49.0609 64 50.0783 63.5786 50.8285 62.8284C51.5786 62.0783 52.0001 61.0609 52.0001 60Z" fill="#F9FAEF"/>
<path d="M37.368 134.216C36.64 134.216 36.02 134.096 35.508 133.856C34.996 133.616 34.604 133.284 34.332 132.86C34.06 132.436 33.924 131.956 33.924 131.42H35.1C35.1 131.684 35.168 131.948 35.304 132.212C35.448 132.476 35.684 132.696 36.012 132.872C36.348 133.048 36.8 133.136 37.368 133.136C37.896 133.136 38.328 133.06 38.664 132.908C39 132.748 39.248 132.544 39.408 132.296C39.568 132.04 39.648 131.764 39.648 131.468C39.648 131.108 39.492 130.812 39.18 130.58C38.868 130.34 38.412 130.192 37.812 130.136L36.84 130.052C36.064 129.988 35.444 129.748 34.98 129.332C34.516 128.916 34.284 128.368 34.284 127.688C34.284 127.152 34.412 126.684 34.668 126.284C34.932 125.884 35.296 125.572 35.76 125.348C36.224 125.116 36.764 125 37.38 125C37.988 125 38.524 125.112 38.988 125.336C39.452 125.56 39.812 125.876 40.068 126.284C40.332 126.684 40.464 127.164 40.464 127.724H39.288C39.288 127.444 39.22 127.18 39.084 126.932C38.956 126.684 38.752 126.48 38.472 126.32C38.192 126.16 37.828 126.08 37.38 126.08C36.948 126.08 36.588 126.156 36.3 126.308C36.02 126.46 35.808 126.66 35.664 126.908C35.528 127.148 35.46 127.408 35.46 127.688C35.46 128.008 35.584 128.292 35.832 128.54C36.08 128.788 36.448 128.932 36.936 128.972L37.908 129.056C38.508 129.104 39.024 129.232 39.456 129.44C39.896 129.64 40.232 129.912 40.464 130.256C40.704 130.592 40.824 130.996 40.824 131.468C40.824 132.004 40.68 132.48 40.392 132.896C40.104 133.312 39.7 133.636 39.18 133.868C38.66 134.1 38.056 134.216 37.368 134.216ZM45.1254 134.072C44.6454 134.072 44.2294 134.004 43.8774 133.868C43.5334 133.732 43.2654 133.5 43.0734 133.172C42.8894 132.836 42.7974 132.384 42.7974 131.816V125.648H43.9014V131.96C43.9014 132.304 43.9934 132.572 44.1774 132.764C44.3694 132.948 44.6374 133.04 44.9814 133.04H46.1094V134.072H45.1254ZM41.6934 128.456V127.592H46.1094V128.456H41.6934ZM51.5913 134V132.08H51.3993V129.86C51.3993 129.42 51.2833 129.088 51.0513 128.864C50.8273 128.64 50.4953 128.528 50.0553 128.528C49.8073 128.528 49.5513 128.532 49.2873 128.54C49.0233 128.548 48.7713 128.556 48.5313 128.564C48.2913 128.572 48.0833 128.584 47.9073 128.6V127.592C48.0833 127.576 48.2673 127.564 48.4593 127.556C48.6593 127.54 48.8633 127.532 49.0713 127.532C49.2793 127.524 49.4793 127.52 49.6713 127.52C50.3273 127.52 50.8633 127.6 51.2793 127.76C51.6953 127.912 52.0033 128.164 52.2033 128.516C52.4033 128.868 52.5033 129.344 52.5033 129.944V134H51.5913ZM49.4913 134.168C49.0113 134.168 48.5953 134.088 48.2433 133.928C47.8993 133.76 47.6313 133.52 47.4393 133.208C47.2553 132.896 47.1633 132.52 47.1633 132.08C47.1633 131.624 47.2633 131.244 47.4633 130.94C47.6713 130.636 47.9713 130.408 48.3633 130.256C48.7553 130.096 49.2273 130.016 49.7793 130.016H51.5193V130.88H49.7313C49.2673 130.88 48.9113 130.992 48.6633 131.216C48.4153 131.44 48.2913 131.728 48.2913 132.08C48.2913 132.432 48.4153 132.716 48.6633 132.932C48.9113 133.148 49.2673 133.256 49.7313 133.256C50.0033 133.256 50.2633 133.208 50.5113 133.112C50.7593 133.008 50.9633 132.84 51.1233 132.608C51.2913 132.368 51.3833 132.04 51.3993 131.624L51.7113 132.08C51.6713 132.536 51.5593 132.92 51.3753 133.232C51.1993 133.536 50.9513 133.768 50.6313 133.928C50.3193 134.088 49.9393 134.168 49.4913 134.168ZM54.6177 134V127.592H55.5297V130.232H55.4817C55.4817 129.296 55.6857 128.612 56.0937 128.18C56.5097 127.74 57.1297 127.52 57.9537 127.52H58.1697V128.552H57.7617C57.1217 128.552 56.6297 128.724 56.2857 129.068C55.9417 129.404 55.7697 129.892 55.7697 130.532V134H54.6177ZM62.1527 134.072C61.6727 134.072 61.2567 134.004 60.9047 133.868C60.5607 133.732 60.2927 133.5 60.1007 133.172C59.9167 132.836 59.8247 132.384 59.8247 131.816V125.648H60.9287V131.96C60.9287 132.304 61.0207 132.572 61.2047 132.764C61.3967 132.948 61.6647 133.04 62.0087 133.04H63.1367V134.072H62.1527ZM58.7207 128.456V127.592H63.1367V128.456H58.7207ZM71.3726 134V132.08H71.1806V129.86C71.1806 129.42 71.0646 129.088 70.8326 128.864C70.6086 128.64 70.2766 128.528 69.8366 128.528C69.5886 128.528 69.3326 128.532 69.0686 128.54C68.8046 128.548 68.5526 128.556 68.3126 128.564C68.0726 128.572 67.8646 128.584 67.6886 128.6V127.592C67.8646 127.576 68.0486 127.564 68.2406 127.556C68.4406 127.54 68.6446 127.532 68.8526 127.532C69.0606 127.524 69.2606 127.52 69.4526 127.52C70.1086 127.52 70.6446 127.6 71.0606 127.76C71.4766 127.912 71.7846 128.164 71.9846 128.516C72.1846 128.868 72.2846 129.344 72.2846 129.944V134H71.3726ZM69.2726 134.168C68.7926 134.168 68.3766 134.088 68.0246 133.928C67.6806 133.76 67.4126 133.52 67.2206 133.208C67.0366 132.896 66.9446 132.52 66.9446 132.08C66.9446 131.624 67.0446 131.244 67.2446 130.94C67.4526 130.636 67.7526 130.408 68.1446 130.256C68.5366 130.096 69.0086 130.016 69.5606 130.016H71.3006V130.88H69.5126C69.0486 130.88 68.6926 130.992 68.4446 131.216C68.1966 131.44 68.0726 131.728 68.0726 132.08C68.0726 132.432 68.1966 132.716 68.4446 132.932C68.6926 133.148 69.0486 133.256 69.5126 133.256C69.7846 133.256 70.0446 133.208 70.2926 133.112C70.5406 133.008 70.7446 132.84 70.9046 132.608C71.0726 132.368 71.1646 132.04 71.1806 131.624L71.4926 132.08C71.4526 132.536 71.3406 132.92 71.1566 133.232C70.9806 133.536 70.7326 133.768 70.4126 133.928C70.1006 134.088 69.7206 134.168 69.2726 134.168ZM74.3989 134V127.592H75.3109V130.34H75.1669C75.1669 129.708 75.2509 129.176 75.4189 128.744C75.5949 128.304 75.8589 127.972 76.2109 127.748C76.5629 127.516 77.0069 127.4 77.5429 127.4H77.5909C78.3989 127.4 78.9949 127.652 79.3789 128.156C79.7709 128.66 79.9669 129.388 79.9669 130.34V134H78.8149V130.1C78.8149 129.604 78.6749 129.208 78.3949 128.912C78.1149 128.608 77.7309 128.456 77.2429 128.456C76.7389 128.456 76.3309 128.612 76.0189 128.924C75.7069 129.236 75.5509 129.652 75.5509 130.172V134H74.3989ZM88.6812 134V132.08H88.4892V129.86C88.4892 129.42 88.3732 129.088 88.1412 128.864C87.9172 128.64 87.5852 128.528 87.1452 128.528C86.8972 128.528 86.6412 128.532 86.3772 128.54C86.1132 128.548 85.8612 128.556 85.6212 128.564C85.3812 128.572 85.1732 128.584 84.9972 128.6V127.592C85.1732 127.576 85.3572 127.564 85.5492 127.556C85.7492 127.54 85.9532 127.532 86.1612 127.532C86.3692 127.524 86.5692 127.52 86.7612 127.52C87.4172 127.52 87.9532 127.6 88.3692 127.76C88.7852 127.912 89.0932 128.164 89.2932 128.516C89.4932 128.868 89.5932 129.344 89.5932 129.944V134H88.6812ZM86.5812 134.168C86.1012 134.168 85.6852 134.088 85.3332 133.928C84.9892 133.76 84.7212 133.52 84.5292 133.208C84.3452 132.896 84.2532 132.52 84.2532 132.08C84.2532 131.624 84.3532 131.244 84.5532 130.94C84.7612 130.636 85.0612 130.408 85.4532 130.256C85.8452 130.096 86.3172 130.016 86.8692 130.016H88.6092V130.88H86.8212C86.3572 130.88 86.0012 130.992 85.7532 131.216C85.5052 131.44 85.3812 131.728 85.3812 132.08C85.3812 132.432 85.5052 132.716 85.7532 132.932C86.0012 133.148 86.3572 133.256 86.8212 133.256C87.0932 133.256 87.3532 133.208 87.6012 133.112C87.8492 133.008 88.0532 132.84 88.2132 132.608C88.3812 132.368 88.4732 132.04 88.4892 131.624L88.8012 132.08C88.7612 132.536 88.6492 132.92 88.4652 133.232C88.2892 133.536 88.0412 133.768 87.7212 133.928C87.4092 134.088 87.0292 134.168 86.5812 134.168ZM94.4555 134.216C93.9035 134.216 93.4235 134.12 93.0155 133.928C92.6155 133.736 92.2835 133.48 92.0195 133.16C91.7555 132.832 91.5555 132.472 91.4195 132.08C91.2915 131.688 91.2275 131.296 91.2275 130.904V130.688C91.2275 130.28 91.2915 129.88 91.4195 129.488C91.5555 129.096 91.7555 128.744 92.0195 128.432C92.2915 128.112 92.6275 127.856 93.0275 127.664C93.4275 127.472 93.8955 127.376 94.4315 127.376C94.9675 127.376 95.4475 127.476 95.8715 127.676C96.3035 127.876 96.6475 128.16 96.9035 128.528C97.1675 128.888 97.3155 129.316 97.3475 129.812H96.2435C96.1875 129.412 96.0035 129.08 95.6915 128.816C95.3795 128.544 94.9595 128.408 94.4315 128.408C93.9755 128.408 93.5955 128.512 93.2915 128.72C92.9875 128.928 92.7595 129.212 92.6075 129.572C92.4555 129.932 92.3795 130.34 92.3795 130.796C92.3795 131.236 92.4555 131.64 92.6075 132.008C92.7595 132.368 92.9875 132.656 93.2915 132.872C93.6035 133.08 93.9915 133.184 94.4555 133.184C94.8155 133.184 95.1275 133.12 95.3915 132.992C95.6555 132.864 95.8675 132.692 96.0275 132.476C96.1875 132.26 96.2835 132.016 96.3155 131.744H97.4195C97.3955 132.248 97.2475 132.684 96.9755 133.052C96.7115 133.42 96.3595 133.708 95.9195 133.916C95.4875 134.116 94.9995 134.216 94.4555 134.216ZM101.481 134.072C101.001 134.072 100.585 134.004 100.233 133.868C99.8889 133.732 99.6209 133.5 99.4289 133.172C99.2449 132.836 99.1529 132.384 99.1529 131.816V125.648H100.257V131.96C100.257 132.304 100.349 132.572 100.533 132.764C100.725 132.948 100.993 133.04 101.337 133.04H102.465V134.072H101.481ZM98.0489 128.456V127.592H102.465V128.456H98.0489ZM104.406 134V127.592H105.558V134H104.406ZM103.422 128.504V127.592H105.558V128.504H103.422ZM104.73 126.56C104.474 126.56 104.282 126.492 104.154 126.356C104.034 126.22 103.974 126.048 103.974 125.84C103.974 125.632 104.034 125.46 104.154 125.324C104.282 125.188 104.474 125.12 104.73 125.12C104.986 125.12 105.174 125.188 105.294 125.324C105.422 125.46 105.486 125.632 105.486 125.84C105.486 126.048 105.422 126.22 105.294 126.356C105.174 126.492 104.986 126.56 104.73 126.56ZM109.154 134L106.97 127.592H108.17L110.306 134H109.154ZM109.442 134V133.088H110.834V134H109.442ZM109.994 134L111.854 127.592H112.982L111.086 134H109.994ZM114.801 134V127.592H115.953V134H114.801ZM113.817 128.504V127.592H115.953V128.504H113.817ZM115.125 126.56C114.869 126.56 114.677 126.492 114.549 126.356C114.429 126.22 114.369 126.048 114.369 125.84C114.369 125.632 114.429 125.46 114.549 125.324C114.677 125.188 114.869 125.12 115.125 125.12C115.381 125.12 115.569 125.188 115.689 125.324C115.817 125.46 115.881 125.632 115.881 125.84C115.881 126.048 115.817 126.22 115.689 126.356C115.569 126.492 115.381 126.56 115.125 126.56ZM120.676 134.072C120.196 134.072 119.78 134.004 119.428 133.868C119.084 133.732 118.816 133.5 118.624 133.172C118.44 132.836 118.348 132.384 118.348 131.816V125.648H119.452V131.96C119.452 132.304 119.544 132.572 119.728 132.764C119.92 132.948 120.188 133.04 120.532 133.04H121.66V134.072H120.676ZM117.244 128.456V127.592H121.66V128.456H117.244ZM122.858 136.496V135.464H123.782C124.054 135.464 124.282 135.428 124.466 135.356C124.658 135.292 124.814 135.18 124.934 135.02C125.062 134.86 125.166 134.648 125.246 134.384L127.262 127.592H128.39L126.254 134.684C126.126 135.108 125.946 135.452 125.714 135.716C125.482 135.988 125.198 136.184 124.862 136.304C124.534 136.432 124.15 136.496 123.71 136.496H122.858ZM124.814 133.856V132.896H126.206V133.856H124.814ZM124.694 133.856L122.402 127.592H123.578L125.774 133.856H124.694Z" fill="white"/>
</svg>
