<svg width="308" height="308" viewBox="0 0 308 308" fill="none" xmlns="http://www.w3.org/2000/svg">
<g filter="url(#filter0_d_17_6)">
<circle cx="154" cy="150" r="150" fill="#59803C"/>
</g>
<path d="M211.4 150.2C210.98 150.515 210.502 150.744 209.993 150.875C209.484 151.005 208.954 151.034 208.434 150.96C207.914 150.886 207.414 150.71 206.962 150.442C206.51 150.174 206.115 149.82 205.8 149.4C203.389 146.159 200.251 143.53 196.638 141.724C193.026 139.917 189.039 138.984 185 139C184.213 139 183.444 138.768 182.789 138.333C182.134 137.898 181.621 137.28 181.315 136.555C181.107 136.063 181 135.534 181 135C181 134.466 181.107 133.937 181.315 133.445C181.621 132.72 182.134 132.102 182.789 131.667C183.444 131.232 184.213 131 185 131C187.244 131 189.444 130.37 191.348 129.183C193.253 127.995 194.786 126.297 195.774 124.282C196.762 122.267 197.165 120.015 196.937 117.782C196.709 115.55 195.86 113.425 194.486 111.651C193.111 109.877 191.267 108.524 189.162 107.745C187.057 106.967 184.775 106.794 182.577 107.247C180.379 107.7 178.352 108.76 176.726 110.307C175.1 111.855 173.941 113.827 173.38 116C173.249 116.509 173.018 116.987 172.702 117.407C172.386 117.827 171.991 118.18 171.538 118.447C171.085 118.714 170.584 118.889 170.064 118.963C169.544 119.036 169.014 119.006 168.505 118.875C167.996 118.744 167.518 118.513 167.098 118.197C166.678 117.881 166.325 117.486 166.058 117.033C165.791 116.58 165.616 116.079 165.542 115.559C165.469 115.039 165.499 114.509 165.63 114C166.409 110.987 167.88 108.196 169.927 105.852C171.974 103.507 174.54 101.672 177.42 100.494C180.301 99.3151 183.417 98.8251 186.52 99.0627C189.624 99.3002 192.629 100.259 195.296 101.862C197.964 103.465 200.221 105.669 201.887 108.298C203.553 110.927 204.583 113.909 204.894 117.005C205.205 120.102 204.789 123.229 203.679 126.137C202.569 129.045 200.796 131.653 198.5 133.755C203.939 136.11 208.667 139.847 212.215 144.595C212.53 145.016 212.759 145.496 212.889 146.006C213.018 146.515 213.046 147.046 212.97 147.567C212.895 148.087 212.717 148.588 212.448 149.04C212.178 149.492 211.822 149.886 211.4 150.2ZM184.46 181C184.749 181.455 184.944 181.964 185.031 182.497C185.119 183.029 185.098 183.574 184.97 184.098C184.841 184.622 184.608 185.114 184.285 185.546C183.961 185.977 183.553 186.339 183.086 186.609C182.619 186.879 182.102 187.052 181.567 187.117C181.031 187.182 180.488 187.138 179.97 186.988C179.452 186.837 178.969 186.584 178.552 186.242C178.134 185.901 177.79 185.478 177.54 185C175.02 180.733 171.432 177.197 167.128 174.741C162.825 172.285 157.955 170.993 153 170.993C148.045 170.993 143.175 172.285 138.872 174.741C134.568 177.197 130.98 180.733 128.46 185C128.21 185.478 127.866 185.901 127.448 186.242C127.031 186.584 126.548 186.837 126.03 186.988C125.512 187.138 124.969 187.182 124.433 187.117C123.898 187.052 123.381 186.879 122.914 186.609C122.447 186.339 122.039 185.977 121.716 185.546C121.392 185.114 121.159 184.622 121.031 184.098C120.902 183.574 120.881 183.029 120.969 182.497C121.056 181.964 121.251 181.455 121.54 181C125.418 174.337 131.331 169.093 138.41 166.04C134.427 162.99 131.499 158.769 130.039 153.969C128.579 149.17 128.66 144.033 130.27 139.282C131.88 134.53 134.938 130.403 139.015 127.479C143.093 124.556 147.983 122.984 153 122.984C158.017 122.984 162.908 124.556 166.985 127.479C171.062 130.403 174.12 134.53 175.73 139.282C177.341 144.033 177.421 149.17 175.961 153.969C174.501 158.769 171.573 162.99 167.59 166.04C174.669 169.093 180.582 174.337 184.46 181ZM153 163C156.165 163 159.258 162.062 161.889 160.304C164.52 158.545 166.571 156.047 167.782 153.123C168.993 150.199 169.31 146.982 168.693 143.879C168.075 140.775 166.551 137.924 164.314 135.686C162.076 133.449 159.225 131.925 156.121 131.307C153.018 130.69 149.801 131.007 146.877 132.218C143.953 133.429 141.455 135.48 139.697 138.111C137.938 140.742 137 143.836 137 147C137 151.243 138.686 155.313 141.686 158.314C144.687 161.314 148.757 163 153 163ZM125 135C125 133.939 124.579 132.922 123.828 132.172C123.078 131.421 122.061 131 121 131C118.756 131 116.556 130.37 114.652 129.183C112.747 127.995 111.214 126.297 110.226 124.282C109.238 122.267 108.835 120.015 109.063 117.782C109.291 115.55 110.14 113.425 111.515 111.651C112.889 109.877 114.734 108.524 116.839 107.745C118.944 106.967 121.225 106.794 123.423 107.247C125.621 107.7 127.648 108.76 129.274 110.307C130.9 111.855 132.059 113.827 132.62 116C132.885 117.028 133.548 117.908 134.462 118.447C135.376 118.986 136.467 119.14 137.495 118.875C138.523 118.61 139.403 117.947 139.942 117.033C140.481 116.119 140.635 115.028 140.37 114C139.591 110.987 138.12 108.196 136.073 105.852C134.026 103.507 131.46 101.672 128.58 100.494C125.699 99.3151 122.583 98.8251 119.48 99.0627C116.376 99.3002 113.371 100.259 110.704 101.862C108.036 103.465 105.779 105.669 104.113 108.298C102.447 110.927 101.417 113.909 101.106 117.005C100.795 120.102 101.211 123.229 102.321 126.137C103.431 129.045 105.205 131.653 107.5 133.755C102.066 136.112 97.3436 139.849 93.8001 144.595C93.1629 145.444 92.8889 146.511 93.0385 147.561C93.188 148.612 93.7489 149.56 94.5976 150.198C95.4462 150.835 96.5133 151.109 97.564 150.959C98.6146 150.81 99.5629 150.249 100.2 149.4C102.611 146.159 105.749 143.53 109.362 141.724C112.975 139.917 116.961 138.984 121 139C122.061 139 123.078 138.579 123.828 137.828C124.579 137.078 125 136.061 125 135Z" fill="#F9FAEF"/>
<path d="M110.368 209.216C109.64 209.216 109.02 209.096 108.508 208.856C107.996 208.616 107.604 208.284 107.332 207.86C107.06 207.436 106.924 206.956 106.924 206.42H108.1C108.1 206.684 108.168 206.948 108.304 207.212C108.448 207.476 108.684 207.696 109.012 207.872C109.348 208.048 109.8 208.136 110.368 208.136C110.896 208.136 111.328 208.06 111.664 207.908C112 207.748 112.248 207.544 112.408 207.296C112.568 207.04 112.648 206.764 112.648 206.468C112.648 206.108 112.492 205.812 112.18 205.58C111.868 205.34 111.412 205.192 110.812 205.136L109.84 205.052C109.064 204.988 108.444 204.748 107.98 204.332C107.516 203.916 107.284 203.368 107.284 202.688C107.284 202.152 107.412 201.684 107.668 201.284C107.932 200.884 108.296 200.572 108.76 200.348C109.224 200.116 109.764 200 110.38 200C110.988 200 111.524 200.112 111.988 200.336C112.452 200.56 112.812 200.876 113.068 201.284C113.332 201.684 113.464 202.164 113.464 202.724H112.288C112.288 202.444 112.22 202.18 112.084 201.932C111.956 201.684 111.752 201.48 111.472 201.32C111.192 201.16 110.828 201.08 110.38 201.08C109.948 201.08 109.588 201.156 109.3 201.308C109.02 201.46 108.808 201.66 108.664 201.908C108.528 202.148 108.46 202.408 108.46 202.688C108.46 203.008 108.584 203.292 108.832 203.54C109.08 203.788 109.448 203.932 109.936 203.972L110.908 204.056C111.508 204.104 112.024 204.232 112.456 204.44C112.896 204.64 113.232 204.912 113.464 205.256C113.704 205.592 113.824 205.996 113.824 206.468C113.824 207.004 113.68 207.48 113.392 207.896C113.104 208.312 112.7 208.636 112.18 208.868C111.66 209.1 111.056 209.216 110.368 209.216ZM118.125 209.072C117.645 209.072 117.229 209.004 116.877 208.868C116.533 208.732 116.265 208.5 116.073 208.172C115.889 207.836 115.797 207.384 115.797 206.816V200.648H116.901V206.96C116.901 207.304 116.993 207.572 117.177 207.764C117.369 207.948 117.637 208.04 117.981 208.04H119.109V209.072H118.125ZM114.693 203.456V202.592H119.109V203.456H114.693ZM124.591 209V207.08H124.399V204.86C124.399 204.42 124.283 204.088 124.051 203.864C123.827 203.64 123.495 203.528 123.055 203.528C122.807 203.528 122.551 203.532 122.287 203.54C122.023 203.548 121.771 203.556 121.531 203.564C121.291 203.572 121.083 203.584 120.907 203.6V202.592C121.083 202.576 121.267 202.564 121.459 202.556C121.659 202.54 121.863 202.532 122.071 202.532C122.279 202.524 122.479 202.52 122.671 202.52C123.327 202.52 123.863 202.6 124.279 202.76C124.695 202.912 125.003 203.164 125.203 203.516C125.403 203.868 125.503 204.344 125.503 204.944V209H124.591ZM122.491 209.168C122.011 209.168 121.595 209.088 121.243 208.928C120.899 208.76 120.631 208.52 120.439 208.208C120.255 207.896 120.163 207.52 120.163 207.08C120.163 206.624 120.263 206.244 120.463 205.94C120.671 205.636 120.971 205.408 121.363 205.256C121.755 205.096 122.227 205.016 122.779 205.016H124.519V205.88H122.731C122.267 205.88 121.911 205.992 121.663 206.216C121.415 206.44 121.291 206.728 121.291 207.08C121.291 207.432 121.415 207.716 121.663 207.932C121.911 208.148 122.267 208.256 122.731 208.256C123.003 208.256 123.263 208.208 123.511 208.112C123.759 208.008 123.963 207.84 124.123 207.608C124.291 207.368 124.383 207.04 124.399 206.624L124.711 207.08C124.671 207.536 124.559 207.92 124.375 208.232C124.199 208.536 123.951 208.768 123.631 208.928C123.319 209.088 122.939 209.168 122.491 209.168ZM127.618 209V202.592H128.53V205.232H128.482C128.482 204.296 128.686 203.612 129.094 203.18C129.51 202.74 130.13 202.52 130.954 202.52H131.17V203.552H130.762C130.122 203.552 129.63 203.724 129.286 204.068C128.942 204.404 128.77 204.892 128.77 205.532V209H127.618ZM135.153 209.072C134.673 209.072 134.257 209.004 133.905 208.868C133.561 208.732 133.293 208.5 133.101 208.172C132.917 207.836 132.825 207.384 132.825 206.816V200.648H133.929V206.96C133.929 207.304 134.021 207.572 134.205 207.764C134.397 207.948 134.665 208.04 135.009 208.04H136.137V209.072H135.153ZM131.721 203.456V202.592H136.137V203.456H131.721ZM144.373 209V207.08H144.181V204.86C144.181 204.42 144.065 204.088 143.833 203.864C143.609 203.64 143.277 203.528 142.837 203.528C142.589 203.528 142.333 203.532 142.069 203.54C141.805 203.548 141.553 203.556 141.313 203.564C141.073 203.572 140.865 203.584 140.689 203.6V202.592C140.865 202.576 141.049 202.564 141.241 202.556C141.441 202.54 141.645 202.532 141.853 202.532C142.061 202.524 142.261 202.52 142.453 202.52C143.109 202.52 143.645 202.6 144.061 202.76C144.477 202.912 144.785 203.164 144.985 203.516C145.185 203.868 145.285 204.344 145.285 204.944V209H144.373ZM142.273 209.168C141.793 209.168 141.377 209.088 141.025 208.928C140.681 208.76 140.413 208.52 140.221 208.208C140.037 207.896 139.945 207.52 139.945 207.08C139.945 206.624 140.045 206.244 140.245 205.94C140.453 205.636 140.753 205.408 141.145 205.256C141.537 205.096 142.009 205.016 142.561 205.016H144.301V205.88H142.513C142.049 205.88 141.693 205.992 141.445 206.216C141.197 206.44 141.073 206.728 141.073 207.08C141.073 207.432 141.197 207.716 141.445 207.932C141.693 208.148 142.049 208.256 142.513 208.256C142.785 208.256 143.045 208.208 143.293 208.112C143.541 208.008 143.745 207.84 143.905 207.608C144.073 207.368 144.165 207.04 144.181 206.624L144.493 207.08C144.453 207.536 144.341 207.92 144.157 208.232C143.981 208.536 143.733 208.768 143.413 208.928C143.101 209.088 142.721 209.168 142.273 209.168ZM147.399 209V202.592H148.311V205.34H148.167C148.167 204.708 148.251 204.176 148.419 203.744C148.595 203.304 148.859 202.972 149.211 202.748C149.563 202.516 150.007 202.4 150.543 202.4H150.591C151.399 202.4 151.995 202.652 152.379 203.156C152.771 203.66 152.967 204.388 152.967 205.34V209H151.815V205.1C151.815 204.604 151.675 204.208 151.395 203.912C151.115 203.608 150.731 203.456 150.243 203.456C149.739 203.456 149.331 203.612 149.019 203.924C148.707 204.236 148.551 204.652 148.551 205.172V209H147.399ZM161.681 209V207.08H161.489V204.86C161.489 204.42 161.373 204.088 161.141 203.864C160.917 203.64 160.585 203.528 160.145 203.528C159.897 203.528 159.641 203.532 159.377 203.54C159.113 203.548 158.861 203.556 158.621 203.564C158.381 203.572 158.173 203.584 157.997 203.6V202.592C158.173 202.576 158.357 202.564 158.549 202.556C158.749 202.54 158.953 202.532 159.161 202.532C159.369 202.524 159.569 202.52 159.761 202.52C160.417 202.52 160.953 202.6 161.369 202.76C161.785 202.912 162.093 203.164 162.293 203.516C162.493 203.868 162.593 204.344 162.593 204.944V209H161.681ZM159.581 209.168C159.101 209.168 158.685 209.088 158.333 208.928C157.989 208.76 157.721 208.52 157.529 208.208C157.345 207.896 157.253 207.52 157.253 207.08C157.253 206.624 157.353 206.244 157.553 205.94C157.761 205.636 158.061 205.408 158.453 205.256C158.845 205.096 159.317 205.016 159.869 205.016H161.609V205.88H159.821C159.357 205.88 159.001 205.992 158.753 206.216C158.505 206.44 158.381 206.728 158.381 207.08C158.381 207.432 158.505 207.716 158.753 207.932C159.001 208.148 159.357 208.256 159.821 208.256C160.093 208.256 160.353 208.208 160.601 208.112C160.849 208.008 161.053 207.84 161.213 207.608C161.381 207.368 161.473 207.04 161.489 206.624L161.801 207.08C161.761 207.536 161.649 207.92 161.465 208.232C161.289 208.536 161.041 208.768 160.721 208.928C160.409 209.088 160.029 209.168 159.581 209.168ZM167.456 209.216C166.904 209.216 166.424 209.12 166.016 208.928C165.616 208.736 165.284 208.48 165.02 208.16C164.756 207.832 164.556 207.472 164.42 207.08C164.292 206.688 164.228 206.296 164.228 205.904V205.688C164.228 205.28 164.292 204.88 164.42 204.488C164.556 204.096 164.756 203.744 165.02 203.432C165.292 203.112 165.628 202.856 166.028 202.664C166.428 202.472 166.896 202.376 167.432 202.376C167.968 202.376 168.448 202.476 168.872 202.676C169.304 202.876 169.648 203.16 169.904 203.528C170.168 203.888 170.316 204.316 170.348 204.812H169.244C169.188 204.412 169.004 204.08 168.692 203.816C168.38 203.544 167.96 203.408 167.432 203.408C166.976 203.408 166.596 203.512 166.292 203.72C165.988 203.928 165.76 204.212 165.608 204.572C165.456 204.932 165.38 205.34 165.38 205.796C165.38 206.236 165.456 206.64 165.608 207.008C165.76 207.368 165.988 207.656 166.292 207.872C166.604 208.08 166.992 208.184 167.456 208.184C167.816 208.184 168.128 208.12 168.392 207.992C168.656 207.864 168.868 207.692 169.028 207.476C169.188 207.26 169.284 207.016 169.316 206.744H170.42C170.396 207.248 170.248 207.684 169.976 208.052C169.712 208.42 169.36 208.708 168.92 208.916C168.488 209.116 168 209.216 167.456 209.216ZM174.481 209.072C174.001 209.072 173.585 209.004 173.233 208.868C172.889 208.732 172.621 208.5 172.429 208.172C172.245 207.836 172.153 207.384 172.153 206.816V200.648H173.257V206.96C173.257 207.304 173.349 207.572 173.533 207.764C173.725 207.948 173.993 208.04 174.337 208.04H175.465V209.072H174.481ZM171.049 203.456V202.592H175.465V203.456H171.049ZM177.406 209V202.592H178.558V209H177.406ZM176.422 203.504V202.592H178.558V203.504H176.422ZM177.73 201.56C177.474 201.56 177.282 201.492 177.154 201.356C177.034 201.22 176.974 201.048 176.974 200.84C176.974 200.632 177.034 200.46 177.154 200.324C177.282 200.188 177.474 200.12 177.73 200.12C177.986 200.12 178.174 200.188 178.294 200.324C178.422 200.46 178.486 200.632 178.486 200.84C178.486 201.048 178.422 201.22 178.294 201.356C178.174 201.492 177.986 201.56 177.73 201.56ZM182.154 209L179.97 202.592H181.17L183.306 209H182.154ZM182.442 209V208.088H183.834V209H182.442ZM182.994 209L184.854 202.592H185.982L184.086 209H182.994ZM187.801 209V202.592H188.953V209H187.801ZM186.817 203.504V202.592H188.953V203.504H186.817ZM188.125 201.56C187.869 201.56 187.677 201.492 187.549 201.356C187.429 201.22 187.369 201.048 187.369 200.84C187.369 200.632 187.429 200.46 187.549 200.324C187.677 200.188 187.869 200.12 188.125 200.12C188.381 200.12 188.569 200.188 188.689 200.324C188.817 200.46 188.881 200.632 188.881 200.84C188.881 201.048 188.817 201.22 188.689 201.356C188.569 201.492 188.381 201.56 188.125 201.56ZM193.676 209.072C193.196 209.072 192.78 209.004 192.428 208.868C192.084 208.732 191.816 208.5 191.624 208.172C191.44 207.836 191.348 207.384 191.348 206.816V200.648H192.452V206.96C192.452 207.304 192.544 207.572 192.728 207.764C192.92 207.948 193.188 208.04 193.532 208.04H194.66V209.072H193.676ZM190.244 203.456V202.592H194.66V203.456H190.244ZM195.858 211.496V210.464H196.782C197.054 210.464 197.282 210.428 197.466 210.356C197.658 210.292 197.814 210.18 197.934 210.02C198.062 209.86 198.166 209.648 198.246 209.384L200.262 202.592H201.39L199.254 209.684C199.126 210.108 198.946 210.452 198.714 210.716C198.482 210.988 198.198 211.184 197.862 211.304C197.534 211.432 197.15 211.496 196.71 211.496H195.858ZM197.814 208.856V207.896H199.206V208.856H197.814ZM197.694 208.856L195.402 202.592H196.578L198.774 208.856H197.694Z" fill="white"/>
<defs>
<filter id="filter0_d_17_6" x="0" y="0" width="308" height="308" filterUnits="userSpaceOnUse" color-interpolation-filters="sRGB">
<feFlood flood-opacity="0" result="BackgroundImageFix"/>
<feColorMatrix in="SourceAlpha" type="matrix" values="0 0 0 0 0 0 0 0 0 0 0 0 0 0 0 0 0 0 127 0" result="hardAlpha"/>
<feOffset dy="4"/>
<feGaussianBlur stdDeviation="2"/>
<feComposite in2="hardAlpha" operator="out"/>
<feColorMatrix type="matrix" values="0 0 0 0 0 0 0 0 0 0 0 0 0 0 0 0 0 0 0.25 0"/>
<feBlend mode="normal" in2="BackgroundImageFix" result="effect1_dropShadow_17_6"/>
<feBlend mode="normal" in="SourceGraphic" in2="effect1_dropShadow_17_6" result="shape"/>
</filter>
</defs>
</svg>
